<svg width="120" height="120" fill="none" xmlns="http://www.w3.org/2000/svg"><path d="M60 10a28.65 28.65 0 00-28.7 28.64v50.42h57.29V38.64A28.64 28.64 0 0060 10z" fill="#FF4632"/><path d="M40.28 89V38.64a19.67 19.67 0 0139.34 0V89H40.28z" fill="#2D46B9"/><path d="M92 89.06H27.89v12.69H92V89.06z" fill="#fff"/><path d="M93.82 97.99H26.07V110h67.75V97.99z" fill="#2D46B9"/><path d="M40.28 37.57v16.67c.66.114 1.33.174 2 .18a13.16 13.16 0 0013.19-13.16 12.9 12.9 0 00-12.16-13.11 17.8 17.8 0 00-3.03 9.42zM82.3 78.13c4.17.32 7.66-1.27 12-2 4-.72 8.15 0 12.23-.13a6.8 6.8 0 003.25-.62 1.935 1.935 0 001-1.33 2.148 2.148 0 00-1.59-2.06c-.88-.31-1.84-.31-2.75-.56-4.47-1.22-3.39-6-4.18-9.39a7.783 7.783 0 00-6.87-5.62 10.61 10.61 0 00-8.39 3.5c-1 1.09-1.81 2.34-2.86 3.39a6.71 6.71 0 01-4.18 2.06c-1.8 0-3.34-1.28-5.22-.88-2.14.45-3.51 2.22-5 3.63A9.338 9.338 0 0167 69.89c-1 .43-2.41.75-3.08 1.67A1.82 1.82 0 0064 74c.74.57 2.34.59 3.25.58a29.006 29.006 0 014.37.07c3 .43 5.34 2.37 8.27 3.11.791.192 1.597.316 2.41.37zM98.06 28.24a36.88 36.88 0 01-3.66 8.19 40.256 40.256 0 01-5.4 7.14 33.16 33.16 0 01-7 5.61 23.62 23.62 0 01-8.42 3.08.15.15 0 01-.17-.13.15.15 0 01.12-.17 25.4 25.4 0 008.13-3.34A35.156 35.156 0 0088.38 43a42.58 42.58 0 005.41-7 44.672 44.672 0 004-7.9.15.15 0 01.19-.09.14.14 0 01.08.23zM83.68 52.76a20.864 20.864 0 004.07-.92 28.763 28.763 0 003.86-1.59c1.26-.61 2.46-1.33 3.68-2L98.91 46a.16.16 0 01.21 0 .16.16 0 010 .2c-1.11.88-2.26 1.71-3.44 2.5A33.903 33.903 0 0192 51c-1.281.65-2.62 1.18-4 1.58-1.39.381-2.829.56-4.27.53a.14.14 0 01-.14-.16.15.15 0 01.09-.19z" fill="#fff"/></svg>