<svg width="130" height="130" fill="none" xmlns="http://www.w3.org/2000/svg"><path d="M109.22 66.54c-6.42-9.9-19-15.11-30.68-13.64C66.86 54.37 56.3 62 50.39 72.25 44.48 82.5 43 94.94 45.32 106.51c5.81-3.84 10.4-5.28 16.2-9.13-.22-4.1-.63-7.67 0-11.74a20.101 20.101 0 015-11.06A21.46 21.46 0 0174 69.87c4.19-1.69 8.92-2.6 13.25-1.28 4.09 1.25 7.35 4.31 10.44 7.28 4.41-2.75 7.31-6.2 11.53-9.33z" fill="#FF4632"/><path d="M27.59 90.84a6.82 6.82 0 100-13.64 6.82 6.82 0 000 13.64z" fill="#2D46B9"/><path d="M103.33 43.93a39.744 39.744 0 00-8.16 8.17 38 38 0 00-7.6 21.45A39.399 39.399 0 0088.82 85a.142.142 0 01-.01.112.14.14 0 01-.09.068.16.16 0 01-.19-.1 36.848 36.848 0 01-1.62-11.58 36.82 36.82 0 017.69-21.83 36.257 36.257 0 018.56-8 .15.15 0 01.21 0 .142.142 0 01.058.06c.013.027.017.056.013.084a.136.136 0 01-.037.075.141.141 0 01-.074.041zM66.08 23.38a21.611 21.611 0 013.07 3.86 29.458 29.458 0 012.22 4.42 46.898 46.898 0 012.52 9.52c.521 3.246.749 6.533.68 9.82a52.466 52.466 0 01-1.09 9.76.15.15 0 01-.18.12.15.15 0 01-.11-.18 61.87 61.87 0 00.72-9.7 60.403 60.403 0 00-.8-9.68 50.37 50.37 0 00-2.41-9.39 25.71 25.71 0 00-4.84-8.33.14.14 0 010-.21.149.149 0 01.168-.043c.02.007.037.018.052.033z" fill="#000"/></svg>