<svg width="130" height="130" fill="none" xmlns="http://www.w3.org/2000/svg"><path d="M67.87 48c-27.94 15.39-17.4 48.23-17.4 48.23l71.69-38.48S95.81 32.63 67.87 48z" fill="#C3F0C8"/><path d="M112.56 41.8a.265.265 0 01.08.21c0 .12-.14.19-.25.24a76.266 76.266 0 01-8.39 2.92c.32-.1 4.84 6.36 5.35 7 .106.12.169.27.18.43 0 .36-.53.45-.88.34a4.404 4.404 0 01-1.29-.71 72.687 72.687 0 01-3.66-2.76 12.34 12.34 0 00-1.65-1.28.4.4 0 00-.63.14 20.6 20.6 0 00-1.14 1.78A31.19 31.19 0 0196.61 55a.27.27 0 01-.15.11.23.23 0 01-.23-.13.66.66 0 010-.28 8.496 8.496 0 01.38-1.7l.51-1.93c.31-.965.567-1.947.77-2.94.09-.55.23-.62-.28-.68-.36 0-1.15.44-1.5.57-2 .73-4 1.38-6 2-.24.07-.54.12-.69-.08-.15-.2 0-.56.26-.75.963-.825 2-1.558 3.1-2.19l3.82-2.32a26.203 26.203 0 00-3.79-3.57c-1.39-1.27-2.76-2.57-4.17-3.82-.24-.23-.51-.57-.34-.86.17-.29.66-.19 1 0a83.184 83.184 0 009.52 4 .31.31 0 00.19 0c.13-.05.12-.24.08-.37-.25-1-.52-2-.79-2.93a35.578 35.578 0 01-1.48-7.36c0-.17 0-.38.17-.42.17-.04.27.11.36.24a46.404 46.404 0 012.39 4c.73 1.46 1.42 2.94 2.11 4.43a.37.37 0 00.62.21 63.4 63.4 0 017.63-2.92.22.22 0 01.16 0c.15.05.1.27 0 .4a51.51 51.51 0 01-5.14 5c-.09.08-.19.2-.15.31a.293.293 0 00.25.14c2.278.448 4.6.632 6.92.55a.78.78 0 01.34 0l.08.09z" fill="#FF4632"/><path d="M7.71 57.79a32.878 32.878 0 016.79-8.89 27.75 27.75 0 019.49-6 15.38 15.38 0 0111.13.14 11.25 11.25 0 014.52 3.44 14.12 14.12 0 012.46 5.12 26 26 0 01-4.36 21.52 26.89 26.89 0 01-1.87 2.15A10.563 10.563 0 0133.51 77a8.17 8.17 0 01-2.77.93 3.63 3.63 0 01-2.92-.81 4.45 4.45 0 01-1.24-2.74 9.77 9.77 0 01.1-2.91 18.177 18.177 0 012-5.33 22 22 0 017.7-8.14 28 28 0 0110.56-3.86 30.09 30.09 0 0111.23.38 25.85 25.85 0 0110.15 4.81 24.292 24.292 0 014 4 25.232 25.232 0 013 4.81A30.09 30.09 0 0177.9 79a44.075 44.075 0 01-.82 11.17 46.139 46.139 0 01-1.43 5.43 26.416 26.416 0 01-2.26 5.14.164.164 0 01-.095.066.163.163 0 01-.115-.016.16.16 0 01-.05-.21 26.01 26.01 0 002.18-5.09 45.44 45.44 0 001.37-5.4c.708-3.651.946-7.378.71-11.09a30.373 30.373 0 00-2.63-10.7 24.834 24.834 0 00-2.9-4.68 23.473 23.473 0 00-3.92-3.86c-5.81-4.59-13.65-6.15-20.89-5a27.29 27.29 0 00-10.28 3.79 21.37 21.37 0 00-7.45 7.92 17.557 17.557 0 00-1.87 5.11 8.816 8.816 0 00-.08 2.66 3.79 3.79 0 001 2.27 2.85 2.85 0 002.29.61 7.372 7.372 0 002.5-.83 9.742 9.742 0 002.19-1.55 25.653 25.653 0 001.81-2.06 25.4 25.4 0 004.32-20.9 13.542 13.542 0 00-2.32-4.89 10.771 10.771 0 00-4.27-3.28 14.77 14.77 0 00-10.71-.16 27.718 27.718 0 00-9.37 5.76A32.64 32.64 0 008 57.93a.15.15 0 01-.26-.14h-.03z" fill="#000"/></svg>